<svg xmlns="http://www.w3.org/2000/svg" width="221" height="23" fill="none"><path fill="#545454" d="M0 11.531C0 17.835 5.322 23 12.069 23c6.4 0 12.069-4.88 12.069-11.5 0-6.24-5.288-11.5-12.07-11.5C5.672 0 0 4.91 0 11.531ZM12.069.604c5.671 0 9.284 5.193 9.284 10.896 0 5.577-3.518 10.9-9.284 10.9-5.672 0-9.28-5.166-9.28-10.869 0-5.64 3.577-10.927 9.28-10.927ZM33.637 22.588h2.597V11.214h1.996l8.143 11.374h3.134l-7.57-10.453c-.667-.192-1.393-.51-2.122-.921 10.802 0 9.378-10.802 1.012-10.802h-7.19v22.176Zm3.009-21.572 3.357.031c6.37.063 6.37 9.566 0 9.566h-3.77V1.428l.413-.411ZM59.008.412v22.176h7.57c9.154 0 9.821-10.327 1.965-11.786C74.94 9.06 74.183.412 66.166.412h-7.158Zm2.596 21.195V11.214h3.77c7.954 0 7.507 10.774.412 10.774h-3.801l-.38-.38Zm0-20.148.38-.412h3.39c6.37 0 6.37 9.566 0 9.566h-3.77V1.46ZM84.283 22.588h2.597V.412h-2.597v22.176ZM102.336 1.016l.412.411v21.161h2.6V1.428l.412-.412h5.954V.412H96.382v.604h5.954ZM121.795 15.86h-.894V8.208h4.258v.782h-3.364v2.806h3.169v.781h-3.169v3.281ZM137.771 8.209v4.942c0 .551-.111 1.033-.335 1.452a2.406 2.406 0 0 1-.991 1.005c-.44.244-.988.363-1.647.363-.942 0-1.661-.255-2.164-.768-.496-.52-.74-1.208-.74-2.066V8.209h.907v4.956c0 .653.168 1.155.503 1.508.342.345.859.516 1.55.516.464 0 .844-.084 1.144-.251.297-.168.517-.405.657-.712a2.44 2.44 0 0 0 .223-1.061V8.209h.893ZM147.403 8.209c.632 0 1.152.08 1.564.237.408.15.712.384.907.698.203.318.307.723.307 1.215 0 .412-.077.75-.223 1.019-.14.272-.332.489-.573.656-.233.167-.485.3-.753.39l2.094 3.435h-1.033l-1.871-3.197h-1.592v3.197h-.893V8.21h2.066Zm-.056.768h-1.117v2.931h1.215c.621 0 1.078-.125 1.368-.377.297-.258.447-.635.447-1.13 0-.52-.161-.887-.475-1.103-.307-.213-.789-.321-1.438-.321ZM163.487 15.86h-1.033l-4.175-6.437h-.042c.007.178.018.377.028.6.018.217.032.447.042.699.007.244.014.488.014.74v4.397h-.823V8.21h1.019l4.16 6.408h.042a9.027 9.027 0 0 1-.028-.517c-.011-.23-.021-.478-.028-.74a16.994 16.994 0 0 1-.014-.726V8.21h.838v7.65ZM171.113 15.86V8.208h.894v7.65h-.894ZM181.996 15.86h-.893V8.99h-2.401V8.21h5.696v.782h-2.402v6.868ZM196.893 8.209v4.942c0 .551-.112 1.033-.335 1.452a2.406 2.406 0 0 1-.991 1.005c-.44.244-.988.363-1.648.363-.942 0-1.661-.255-2.163-.768-.496-.52-.74-1.208-.74-2.066V8.209h.907v4.956c0 .653.168 1.155.503 1.508.342.345.858.516 1.549.516.464 0 .845-.084 1.145-.251.297-.168.517-.405.656-.712.147-.307.224-.66.224-1.061V8.209h.893ZM206.525 8.209c.631 0 1.151.08 1.563.237.409.15.712.384.908.698.202.318.307.723.307 1.215 0 .412-.077.75-.224 1.019a1.76 1.76 0 0 1-.572.656c-.234.167-.485.3-.754.39l2.094 3.435h-1.033l-1.871-3.197h-1.591v3.197h-.894V8.21h2.067Zm-.056.768h-1.117v2.931h1.215c.621 0 1.078-.125 1.368-.377.296-.258.446-.635.446-1.13 0-.52-.16-.887-.474-1.103-.307-.213-.789-.321-1.438-.321ZM220.877 15.86h-4.258V8.208h4.258v.782h-3.364v2.47h3.169v.782h-3.169v2.834h3.364v.782Z"/></svg>